<?xml version="1.0" encoding="UTF-8"?>
<svg width="752pt" height="752pt" version="1.1" viewBox="0 0 752 752" xmlns="http://www.w3.org/2000/svg">
 <path d="m393.49 257.59c-25.855 0-51.719 9.8203-71.383 29.484-36.5 36.5-39.109 94.344-7.8633 133.91l-53.164 53.164h0.003907c-2.2266 2.2227-3.4805 5.2383-3.4805 8.3828 0 3.1445 1.2539 6.1602 3.4805 8.3828 2.2227 2.2344 5.2422 3.4883 8.3945 3.4883 3.1484 0 6.1719-1.2539 8.3906-3.4883l53.164-53.164c39.574 31.203 97.41 28.641 133.89-7.8359 39.328-39.332 39.285-103.51-0.046875-142.84-19.664-19.664-45.527-29.484-71.383-29.484zm0.023437 23.492c19.762-0.015626 39.527 7.543 54.664 22.684 30.281 30.281 30.281 79.098 0 109.38-30.281 30.281-79.051 30.234-109.33-0.042969-30.281-30.281-30.281-78.98 0-109.26 15.141-15.141 34.902-22.738 54.664-22.754z" fill="#A4CE5F"/>
</svg>
